<?xml version="1.0" encoding="UTF-8"?>
<svg width="23px" height="23px" viewBox="0 0 23 23" version="1.1" xmlns="http://www.w3.org/2000/svg" xmlns:xlink="http://www.w3.org/1999/xlink">
    <!-- Generator: Sketch 47.1 (45422) - http://www.bohemiancoding.com/sketch -->
    <title>Shape</title>
    <desc>Created with Sketch.</desc>
    <defs></defs>
    <g id="DESKTOP" stroke="none" stroke-width="1" fill="none" fill-rule="evenodd">
        <g id="06-CONTACT-OVERLAY" transform="translate(-1264.000000, -836.000000)" fill-rule="nonzero" fill="#FFFFFF">
            <g id="SOCIAL" transform="translate(1229.000000, 836.000000)">
                <path d="M49.49,11.04 C49.49,12.94555 47.94555,14.49 46.04,14.49 C44.13445,14.49 42.59,12.94555 42.59,11.04 C42.59,10.84335 42.6107,10.6513 42.64635,10.465 L41.44,10.465 L41.44,15.06155 C41.44,15.38125 41.69875,15.64 42.01845,15.64 L50.0627,15.64 C50.38125,15.64 50.64,15.38125 50.64,15.06155 L50.64,10.465 L49.43365,10.465 C49.4693,10.6513 49.49,10.84335 49.49,11.04 Z M46.04,13.34 C47.3096,13.34 48.34,12.3096 48.34,11.04 C48.34,9.7704 47.3096,8.74 46.04,8.74 C44.7704,8.74 43.74,9.7704 43.74,11.04 C43.74,12.3096 44.7704,13.34 46.04,13.34 Z M48.8,8.625 L50.17885,8.625 C50.36975,8.625 50.525,8.46975 50.525,8.28 L50.525,6.90115 C50.525,6.71025 50.36975,6.555 50.17885,6.555 L48.8,6.555 C48.6091,6.555 48.45385,6.71025 48.45385,6.90115 L48.45385,8.28 C48.455,8.46975 48.61025,8.625 48.8,8.625 Z M46.04,0 C39.9427,0 35,4.9427 35,11.04 C35,17.1373 39.9427,22.08 46.04,22.08 C52.1373,22.08 57.08,17.1373 57.08,11.04 C57.08,4.9427 52.1373,0 46.04,0 Z M51.79,15.51235 C51.79,16.215 51.215,16.79 50.51235,16.79 L41.56765,16.79 C40.865,16.79 40.29,16.215 40.29,15.51235 L40.29,6.56765 C40.29,5.865 40.865,5.29 41.56765,5.29 L50.51235,5.29 C51.215,5.29 51.79,5.865 51.79,6.56765 L51.79,15.51235 Z" id="Shape"></path>
            </g>
        </g>
    </g>
</svg>