<?xml version="1.0" encoding="UTF-8"?>
<svg width="24px" height="23px" viewBox="0 0 24 23" version="1.1" xmlns="http://www.w3.org/2000/svg" xmlns:xlink="http://www.w3.org/1999/xlink">
    <!-- Generator: Sketch 47.1 (45422) - http://www.bohemiancoding.com/sketch -->
    <title>Shape</title>
    <desc>Created with Sketch.</desc>
    <defs></defs>
    <g id="Symbols" stroke="none" stroke-width="1" fill="none" fill-rule="evenodd">
        <g id="FOOTER" transform="translate(-1264.000000, -57.000000)" fill-rule="nonzero" fill="#1D2428">
            <g id="SOCIAL">
                <g transform="translate(1230.000000, 57.000000)">
                    <path d="M49.45,11.5 C49.45,13.40555 47.90555,14.95 46,14.95 C44.09445,14.95 42.55,13.40555 42.55,11.5 C42.55,11.30335 42.5707,11.1113 42.60635,10.925 L41.4,10.925 L41.4,15.52155 C41.4,15.84125 41.65875,16.1 41.97845,16.1 L50.0227,16.1 C50.34125,16.1 50.6,15.84125 50.6,15.52155 L50.6,10.925 L49.39365,10.925 C49.4293,11.1113 49.45,11.30335 49.45,11.5 Z M46,13.8 C47.2696,13.8 48.3,12.7696 48.3,11.5 C48.3,10.2304 47.2696,9.2 46,9.2 C44.7304,9.2 43.7,10.2304 43.7,11.5 C43.7,12.7696 44.7304,13.8 46,13.8 Z M48.76,9.085 L50.13885,9.085 C50.32975,9.085 50.485,8.92975 50.485,8.74 L50.485,7.36115 C50.485,7.17025 50.32975,7.015 50.13885,7.015 L48.76,7.015 C48.5691,7.015 48.41385,7.17025 48.41385,7.36115 L48.41385,8.74 C48.415,8.92975 48.57025,9.085 48.76,9.085 Z M46,0.46 C39.9027,0.46 34.96,5.4027 34.96,11.5 C34.96,17.5973 39.9027,22.54 46,22.54 C52.0973,22.54 57.04,17.5973 57.04,11.5 C57.04,5.4027 52.0973,0.46 46,0.46 Z M51.75,15.97235 C51.75,16.675 51.175,17.25 50.47235,17.25 L41.52765,17.25 C40.825,17.25 40.25,16.675 40.25,15.97235 L40.25,7.02765 C40.25,6.325 40.825,5.75 41.52765,5.75 L50.47235,5.75 C51.175,5.75 51.75,6.325 51.75,7.02765 L51.75,15.97235 Z" id="Shape"></path>
                </g>
            </g>
        </g>
    </g>
</svg>