<?xml version="1.0" encoding="UTF-8"?>
<svg width="23px" height="23px" viewBox="0 0 23 23" version="1.1" xmlns="http://www.w3.org/2000/svg" xmlns:xlink="http://www.w3.org/1999/xlink">
    <!-- Generator: Sketch 47.1 (45422) - http://www.bohemiancoding.com/sketch -->
    <title>Shape</title>
    <desc>Created with Sketch.</desc>
    <defs></defs>
    <g id="DESKTOP" stroke="none" stroke-width="1" fill="none" fill-rule="evenodd">
        <g id="06-CONTACT-OVERLAY" transform="translate(-1298.000000, -836.000000)" fill-rule="nonzero" fill="#FFFFFF">
            <g id="SOCIAL" transform="translate(1229.000000, 836.000000)">
                <path d="M80.04,0 C73.9427,0 69,4.9427 69,11.04 C69,17.1373 73.9427,22.08 80.04,22.08 C86.1373,22.08 91.08,17.1373 91.08,11.04 C91.08,4.9427 86.1373,0 80.04,0 Z M77.3375,15.61585 L75.1019,15.61585 L75.1019,8.42145 L77.3375,8.42145 L77.3375,15.61585 Z M76.2059,7.53825 C75.4998,7.53825 75.04325,7.038 75.04325,6.4193 C75.04325,5.78795 75.5136,5.30265 76.23465,5.30265 C76.9557,5.30265 77.3973,5.78795 77.4111,6.4193 C77.4111,7.038 76.9557,7.53825 76.2059,7.53825 Z M85.5025,15.61585 L83.2669,15.61585 L83.2669,11.6288 C83.2669,10.70075 82.9426,10.07055 82.13415,10.07055 C81.5166,10.07055 81.14975,10.4972 80.9876,10.90775 C80.9278,11.0538 80.91285,11.2608 80.91285,11.46665 L80.91285,15.6147 L78.6761,15.6147 L78.6761,10.7157 C78.6761,9.81755 78.64735,9.0666 78.61745,8.4203 L80.5598,8.4203 L80.66215,9.41965 L80.707,9.41965 C81.0014,8.95045 81.72245,8.25815 82.9288,8.25815 C84.39965,8.25815 85.5025,9.2437 85.5025,11.362 L85.5025,15.61585 Z" id="Shape"></path>
            </g>
        </g>
    </g>
</svg>