<?xml version="1.0" encoding="UTF-8"?>
<svg width="23px" height="23px" viewBox="0 0 23 23" version="1.1" xmlns="http://www.w3.org/2000/svg" xmlns:xlink="http://www.w3.org/1999/xlink">
    <!-- Generator: Sketch 47.1 (45422) - http://www.bohemiancoding.com/sketch -->
    <title>Shape</title>
    <desc>Created with Sketch.</desc>
    <defs></defs>
    <g id="Symbols" stroke="none" stroke-width="1" fill="none" fill-rule="evenodd">
        <g id="FOOTER" transform="translate(-1299.000000, -57.000000)" fill-rule="nonzero" fill="#1D2428">
            <g id="SOCIAL">
                <g transform="translate(1230.000000, 57.000000)">
                    <path d="M80.5,0.46 C74.4027,0.46 69.46,5.4027 69.46,11.5 C69.46,17.5973 74.4027,22.54 80.5,22.54 C86.5973,22.54 91.54,17.5973 91.54,11.5 C91.54,5.4027 86.5973,0.46 80.5,0.46 Z M77.7975,16.07585 L75.5619,16.07585 L75.5619,8.88145 L77.7975,8.88145 L77.7975,16.07585 Z M76.6659,7.99825 C75.9598,7.99825 75.50325,7.498 75.50325,6.8793 C75.50325,6.24795 75.9736,5.76265 76.69465,5.76265 C77.4157,5.76265 77.8573,6.24795 77.8711,6.8793 C77.8711,7.498 77.4157,7.99825 76.6659,7.99825 Z M85.9625,16.07585 L83.7269,16.07585 L83.7269,12.0888 C83.7269,11.16075 83.4026,10.53055 82.59415,10.53055 C81.9766,10.53055 81.60975,10.9572 81.4476,11.36775 C81.3878,11.5138 81.37285,11.7208 81.37285,11.92665 L81.37285,16.0747 L79.1361,16.0747 L79.1361,11.1757 C79.1361,10.27755 79.10735,9.5266 79.07745,8.8803 L81.0198,8.8803 L81.12215,9.87965 L81.167,9.87965 C81.4614,9.41045 82.18245,8.71815 83.3888,8.71815 C84.85965,8.71815 85.9625,9.7037 85.9625,11.822 L85.9625,16.07585 Z" id="Shape"></path>
                </g>
            </g>
        </g>
    </g>
</svg>