<?xml version="1.0" encoding="UTF-8"?>
<svg width="117px" height="75px" viewBox="0 0 117 75" version="1.1" xmlns="http://www.w3.org/2000/svg" xmlns:xlink="http://www.w3.org/1999/xlink">
    <!-- Generator: Sketch 47.1 (45422) - http://www.bohemiancoding.com/sketch -->
    <title>Page 1</title>
    <desc>Created with Sketch.</desc>
    <defs>
        <polygon id="path-1" points="0 74.2966 116.388 74.2966 116.388 -0.0004 0 -0.0004"></polygon>
    </defs>
    <g id="Symbols" stroke="none" stroke-width="1" fill="none" fill-rule="evenodd">
        <g id="FOOTER" transform="translate(-127.000000, -58.000000)">
            <g id="Page-1" transform="translate(127.000000, 58.000000)">
                <path d="M28.8262,65.3877 C28.8262,65.5317 28.8652,65.6627 28.9442,65.7797 C29.0232,65.8957 29.1072,66.0017 29.1972,66.0987 L29.3722,66.2837 L29.6602,66.0777 C29.8112,65.9677 29.9202,65.8527 29.9852,65.7327 C30.0502,65.6127 30.0822,65.4937 30.0822,65.3777 C30.0822,65.1997 30.0212,65.0517 29.8962,64.9337 C29.7732,64.8177 29.6222,64.7597 29.4442,64.7597 C29.2862,64.7597 29.1432,64.8097 29.0162,64.9087 C28.8892,65.0077 28.8262,65.1677 28.8262,65.3877 Z M29.2892,69.7757 C29.4682,69.7757 29.6372,69.7337 29.7942,69.6517 C29.9522,69.5697 30.1062,69.4497 30.2582,69.2917 L29.1252,68.0757 L29.0732,68.1167 C28.9012,68.2417 28.7642,68.3737 28.6612,68.5137 C28.5582,68.6547 28.5062,68.8247 28.5062,69.0237 C28.5062,69.2157 28.5772,69.3897 28.7182,69.5437 C28.8582,69.6977 29.0492,69.7757 29.2892,69.7757 Z M31.1642,70.2597 C30.9092,70.5207 30.6252,70.7277 30.3092,70.8837 C29.9932,71.0377 29.6392,71.1147 29.2482,71.1147 C28.8852,71.1147 28.5632,71.0577 28.2852,70.9447 C28.0072,70.8307 27.7722,70.6797 27.5792,70.4917 C27.3882,70.3027 27.2412,70.0877 27.1412,69.8477 C27.0422,69.6077 26.9922,69.3607 26.9922,69.1057 C26.9922,68.6587 27.1022,68.2867 27.3222,67.9887 C27.5422,67.6897 27.8472,67.3997 28.2392,67.1177 L28.1362,67.0047 C28.0462,66.9087 27.9572,66.8047 27.8672,66.6907 C27.7782,66.5767 27.6982,66.4557 27.6262,66.3247 C27.5542,66.1947 27.4942,66.0557 27.4462,65.9077 C27.3972,65.7597 27.3742,65.6037 27.3742,65.4387 C27.3742,65.1307 27.4332,64.8557 27.5542,64.6147 C27.6742,64.3747 27.8322,64.1727 28.0272,64.0077 C28.2222,63.8427 28.4452,63.7177 28.6922,63.6317 C28.9382,63.5457 29.1892,63.5027 29.4442,63.5027 C29.7462,63.5027 30.0242,63.5487 30.2782,63.6417 C30.5322,63.7347 30.7522,63.8627 30.9372,64.0287 C31.1222,64.1927 31.2682,64.3897 31.3762,64.6197 C31.4812,64.8507 31.5352,65.1027 31.5352,65.3777 C31.5352,65.5627 31.5062,65.7367 31.4472,65.8977 C31.3892,66.0587 31.3132,66.2097 31.2212,66.3507 C31.1282,66.4917 31.0182,66.6227 30.8912,66.7417 C30.7632,66.8627 30.6362,66.9707 30.5052,67.0667 L30.2682,67.2417 L31.2462,68.2717 L33.1932,66.2837 L33.1932,68.2007 L32.1632,69.2407 L33.8012,70.9707 L31.8232,70.9707 L31.1642,70.2597 Z" id="Fill-1" fill="#1D2428"></path>
                <path d="M40.7588,70.4986 C40.7868,70.9136 40.9588,71.2856 41.2738,71.6146 C41.5878,71.9436 42.0608,72.1076 42.6898,72.1076 C43.1618,72.1076 43.5118,72.0036 43.7408,71.7966 C43.9698,71.5886 44.0848,71.3426 44.0848,71.0566 C44.0848,70.8126 43.9978,70.6026 43.8268,70.4226 C43.6548,70.2446 43.3628,70.1126 42.9468,70.0266 L41.5528,69.7046 C40.5228,69.4766 39.7718,69.0786 39.2988,68.5136 C38.8268,67.9486 38.5908,67.2936 38.5908,66.5496 C38.5908,66.0776 38.6908,65.6306 38.8918,65.2086 C39.0908,64.7866 39.3668,64.4226 39.7178,64.1146 C40.0678,63.8066 40.4828,63.5606 40.9618,63.3746 C41.4418,63.1886 41.9668,63.0956 42.5398,63.0956 C43.2828,63.0956 43.9128,63.1996 44.4278,63.4066 C44.9438,63.6146 45.3618,63.8746 45.6828,64.1886 C46.0048,64.5046 46.2448,64.8366 46.4028,65.1876 C46.5588,65.5376 46.6528,65.8566 46.6808,66.1426 L44.2988,66.6786 C44.2698,66.5206 44.2238,66.3606 44.1588,66.1956 C44.0958,66.0316 43.9908,65.8776 43.8488,65.7346 C43.7048,65.5916 43.5298,65.4766 43.3218,65.3916 C43.1138,65.3056 42.8618,65.2626 42.5608,65.2626 C42.1888,65.2626 41.8708,65.3626 41.6058,65.5626 C41.3408,65.7636 41.2088,66.0136 41.2088,66.3136 C41.2088,66.5716 41.2978,66.7796 41.4768,66.9356 C41.6558,67.0936 41.8888,67.2006 42.1738,67.2576 L43.6768,67.5796 C44.7208,67.7946 45.5038,68.1946 46.0268,68.7816 C46.5478,69.3686 46.8098,70.0476 46.8098,70.8206 C46.8098,71.2496 46.7278,71.6716 46.5638,72.0856 C46.3988,72.5006 46.1448,72.8736 45.8018,73.2016 C45.4578,73.5316 45.0288,73.7956 44.5138,73.9966 C43.9978,74.1956 43.3988,74.2966 42.7108,74.2966 C41.9088,74.2966 41.2378,74.1816 40.6948,73.9526 C40.1498,73.7256 39.7058,73.4456 39.3628,73.1166 C39.0198,72.7876 38.7658,72.4336 38.6018,72.0546 C38.4378,71.6756 38.3398,71.3346 38.3118,71.0356 L40.7588,70.4986 Z" id="Fill-3" fill="#1D2428"></path>
                <path d="M54.127,71.6998 C54.471,71.6998 54.807,71.6358 55.135,71.5068 C55.465,71.3778 55.75,71.1888 55.993,70.9388 C56.236,70.6878 56.434,70.3768 56.584,70.0048 C56.734,69.6328 56.809,69.1968 56.809,68.6958 C56.809,68.1948 56.734,67.7598 56.584,67.3878 C56.434,67.0148 56.236,66.7038 55.993,66.4528 C55.75,66.2038 55.465,66.0128 55.135,65.8848 C54.807,65.7558 54.471,65.6918 54.127,65.6918 C53.784,65.6918 53.447,65.7558 53.118,65.8848 C52.789,66.0128 52.503,66.2038 52.26,66.4528 C52.017,66.7038 51.82,67.0148 51.67,67.3878 C51.52,67.7598 51.444,68.1948 51.444,68.6958 C51.444,69.1968 51.52,69.6328 51.67,70.0048 C51.82,70.3768 52.017,70.6878 52.26,70.9388 C52.503,71.1888 52.789,71.3778 53.118,71.5068 C53.447,71.6358 53.784,71.6998 54.127,71.6998 M54.127,63.0958 C54.914,63.0958 55.647,63.2348 56.326,63.5138 C57.006,63.7928 57.593,64.1788 58.086,64.6718 C58.579,65.1658 58.966,65.7558 59.245,66.4428 C59.524,67.1298 59.663,67.8808 59.663,68.6958 C59.663,69.5118 59.524,70.2588 59.245,70.9388 C58.966,71.6178 58.579,72.2078 58.086,72.7088 C57.593,73.2098 57.006,73.5988 56.326,73.8788 C55.647,74.1578 54.914,74.2968 54.127,74.2968 C53.34,74.2968 52.606,74.1578 51.927,73.8788 C51.247,73.5988 50.661,73.2098 50.168,72.7088 C49.674,72.2078 49.287,71.6178 49.009,70.9388 C48.731,70.2588 48.59,69.5118 48.59,68.6958 C48.59,67.8808 48.731,67.1298 49.009,66.4428 C49.287,65.7558 49.674,65.1658 50.168,64.6718 C50.661,64.1788 51.247,63.7928 51.927,63.5138 C52.606,63.2348 53.34,63.0958 54.127,63.0958" id="Fill-5" fill="#1D2428"></path>
                <path d="M65.0928,73.9747 L62.2388,73.9747 L62.2388,63.4167 L65.0068,63.4167 L65.0068,64.7257 C65.3358,64.1827 65.7828,63.7817 66.3488,63.5247 C66.9128,63.2667 67.4818,63.1387 68.0538,63.1387 C68.7118,63.1387 69.2798,63.2487 69.7598,63.4707 C70.2388,63.6927 70.6368,63.9897 70.9508,64.3607 C71.2658,64.7327 71.4978,65.1767 71.6488,65.6917 C71.7988,66.2067 71.8738,66.7507 71.8738,67.3227 L71.8738,73.9747 L69.0198,73.9747 L69.0198,67.8157 C69.0198,67.2157 68.8658,66.7147 68.5588,66.3137 C68.2508,65.9137 67.7538,65.7127 67.0678,65.7127 C66.4368,65.7127 65.9508,65.9247 65.6088,66.3457 C65.2648,66.7687 65.0928,67.2877 65.0928,67.9017 L65.0928,73.9747 Z" id="Fill-8" fill="#1D2428"></path>
                <path d="M76.6377,70.4986 C76.6657,70.9136 76.8377,71.2856 77.1527,71.6146 C77.4667,71.9436 77.9397,72.1076 78.5687,72.1076 C79.0407,72.1076 79.3907,72.0036 79.6197,71.7966 C79.8487,71.5886 79.9637,71.3426 79.9637,71.0566 C79.9637,70.8126 79.8767,70.6026 79.7057,70.4226 C79.5337,70.2446 79.2417,70.1126 78.8257,70.0266 L77.4317,69.7046 C76.4017,69.4766 75.6507,69.0786 75.1777,68.5136 C74.7057,67.9486 74.4697,67.2936 74.4697,66.5496 C74.4697,66.0776 74.5697,65.6306 74.7707,65.2086 C74.9707,64.7866 75.2457,64.4226 75.5967,64.1146 C75.9477,63.8066 76.3617,63.5606 76.8407,63.3746 C77.3207,63.1886 77.8467,63.0956 78.4187,63.0956 C79.1617,63.0956 79.7917,63.1996 80.3067,63.4066 C80.8227,63.6146 81.2407,63.8746 81.5627,64.1886 C81.8837,64.5046 82.1237,64.8366 82.2817,65.1876 C82.4387,65.5376 82.5317,65.8566 82.5597,66.1426 L80.1777,66.6786 C80.1487,66.5206 80.1027,66.3606 80.0377,66.1956 C79.9747,66.0316 79.8697,65.8776 79.7277,65.7346 C79.5837,65.5916 79.4087,65.4766 79.2017,65.3916 C78.9937,65.3056 78.7407,65.2626 78.4397,65.2626 C78.0677,65.2626 77.7497,65.3626 77.4857,65.5626 C77.2197,65.7636 77.0877,66.0136 77.0877,66.3136 C77.0877,66.5716 77.1777,66.7796 77.3557,66.9356 C77.5347,67.0936 77.7677,67.2006 78.0537,67.2576 L79.5557,67.5796 C80.5997,67.7946 81.3827,68.1946 81.9067,68.7816 C82.4267,69.3686 82.6887,70.0476 82.6887,70.8206 C82.6887,71.2496 82.6067,71.6716 82.4427,72.0856 C82.2777,72.5006 82.0237,72.8736 81.6807,73.2016 C81.3367,73.5316 80.9077,73.7956 80.3927,73.9966 C79.8767,74.1956 79.2777,74.2966 78.5897,74.2966 C77.7877,74.2966 77.1167,74.1816 76.5737,73.9526 C76.0297,73.7256 75.5857,73.4456 75.2427,73.1166 C74.8997,72.7876 74.6447,72.4336 74.4807,72.0546 C74.3167,71.6756 74.2187,71.3346 74.1907,71.0356 L76.6377,70.4986 Z" id="Fill-10" fill="#1D2428"></path>
                <mask id="mask-2" fill="white">
                    <use xlink:href="#path-1"></use>
                </mask>
                <g id="Clip-13"></g>
                <polygon id="Fill-12" fill="#1D2428" mask="url(#mask-2)" points="26.993 73.9746 33.801 73.9746 33.801 72.6756 26.993 72.6756"></polygon>
                <path d="M3.5459,16.7706 L3.5459,4.0626 L5.5389,4.0626 C6.6469,4.0626 7.5329,4.9486 7.5329,6.0566 L7.5329,17.3426 L11.0779,17.8526 L11.0779,6.0566 C11.0779,3.0286 8.5669,0.5176 5.5389,0.5176 L-0.0001,0.5176 L-0.0001,16.2616 L3.5459,16.7706 Z" id="Fill-14" fill="#1D2428" mask="url(#mask-2)"></path>
                <path d="M7.5332,20.3741 L7.5332,46.6771 C7.5332,47.7851 6.6462,48.6711 5.5392,48.6711 L3.5462,48.6711 L3.5462,19.8011 L0.0002,19.2921 L0.0002,52.2161 L5.5392,52.2161 C8.5662,52.2161 11.0782,49.7051 11.0782,46.6771 L11.0782,20.8831 L7.5332,20.3741 Z" id="Fill-15" fill="#1D2428" mask="url(#mask-2)"></path>
                <polygon id="Fill-16" fill="#1D2428" mask="url(#mask-2)" points="15.6562 21.5401 15.6562 52.2161 19.2002 52.2161 19.2002 22.0491"></polygon>
                <polygon id="Fill-17" fill="#1D2428" mask="url(#mask-2)" points="19.2002 19.0181 19.2002 0.5171 15.6562 0.5171 15.6562 18.5091"></polygon>
                <path d="M27.3252,20.1846 L27.3252,6.0566 C27.3252,4.9486 28.2112,4.0616 29.3182,4.0616 L31.3122,4.0616 L31.3122,11.5206 L34.8572,11.5206 L34.8572,0.5176 L29.3182,0.5176 C26.2902,0.5176 23.7792,3.0286 23.7792,6.0566 L23.7792,19.6756 L27.3252,20.1846 Z" id="Fill-18" fill="#1D2428" mask="url(#mask-2)"></path>
                <path d="M31.3125,47.1934 C31.3125,48.3014 30.4255,49.1884 29.3185,49.1884 C28.2105,49.1884 27.3255,48.3014 27.3255,47.1934 L27.3255,23.2154 L23.7795,22.7064 L23.7795,47.1934 C23.7795,50.2214 26.2905,52.7334 29.3185,52.7334 C32.3455,52.7334 34.8575,50.2214 34.8575,47.1934 L34.8575,40.9904 L31.3125,40.9904 L31.3125,47.1934 Z" id="Fill-19" fill="#1D2428" mask="url(#mask-2)"></path>
                <polygon id="Fill-20" fill="#1D2428" mask="url(#mask-2)" points="45.7383 22.8165 49.6273 16.9005 49.6273 0.5055 46.0833 0.5055 46.0833 15.9415 42.0943 22.3055"></polygon>
                <polygon id="Fill-21" fill="#1D2428" mask="url(#mask-2)" points="38.5498 24.8272 38.5498 52.2162 42.0948 52.2162 42.0948 28.2122 46.0828 34.5642 46.0828 52.2162 49.6268 52.2162 49.6268 33.3082 44.6238 25.6992"></polygon>
                <polygon id="Fill-22" fill="#1D2428" mask="url(#mask-2)" points="42.0947 22.3052 42.0947 0.5172 38.5497 0.5172 38.5497 21.7962"></polygon>
                <polygon id="Fill-23" fill="#1D2428" mask="url(#mask-2)" points="60.8604 24.9996 64.2514 19.3506 64.2514 0.5176 60.7054 0.5176 60.7054 18.3906 58.7124 21.7136 56.7174 18.3906 56.7174 0.5176 53.1724 0.5176 53.1724 19.3506 56.1574 24.3246"></polygon>
                <polygon id="Fill-24" fill="#1D2428" mask="url(#mask-2)" points="56.9395 27.4673 56.9395 52.2163 60.4835 52.2163 60.4835 27.9763"></polygon>
                <polygon id="Fill-25" fill="#1D2428" mask="url(#mask-2)" points="69.8623 29.3228 69.8623 52.2158 73.4083 52.2158 73.4083 29.8318"></polygon>
                <polygon id="Fill-26" fill="#1D2428" mask="url(#mask-2)" points="69.8623 26.292 73.4083 26.801 73.4083 4.062 76.8793 4.062 76.8793 0.517 66.3173 0.517 66.3173 4.062 69.8623 4.062"></polygon>
                <polygon id="Fill-27" fill="#1D2428" mask="url(#mask-2)" points="98.8857 30.459 98.8857 0.517 95.3397 0.517 95.3397 29.95"></polygon>
                <polygon id="Fill-28" fill="#1D2428" mask="url(#mask-2)" points="98.8857 33.4898 95.3397 32.9808 95.3397 52.2158 104.6457 52.2158 104.6457 48.6708 98.8857 48.6708"></polygon>
                <polygon id="Fill-29" fill="#1D2428" mask="url(#mask-2)" points="110.6289 32.1451 110.6289 0.5171 107.0829 0.5171 107.0829 31.6361"></polygon>
                <polygon id="Fill-30" fill="#1D2428" mask="url(#mask-2)" points="110.6289 35.1758 107.0829 34.6668 107.0829 52.2158 116.3889 52.2158 116.3889 48.6708 110.6289 48.6708"></polygon>
                <path d="M85.3711,0 C82.3431,0 79.8321,2.511 79.8321,5.54 L79.8321,27.723 L83.3771,28.232 L83.3771,27.105 L83.3771,5.54 C83.3771,4.431 84.2631,3.545 85.3711,3.545 C86.4781,3.545 87.3651,4.431 87.3651,5.54 L87.3651,27.105 L87.3651,28.805 L90.9101,29.314 L90.9101,5.54 C90.9101,2.511 88.3981,0 85.3711,0" id="Fill-31" fill="#1D2428" mask="url(#mask-2)"></path>
                <polygon id="Fill-32" fill="#1D2428" mask="url(#mask-2)" points="79.832 30.7544 79.832 52.2154 83.377 52.2154 83.377 31.2634"></polygon>
                <polygon id="Fill-33" fill="#1D2428" mask="url(#mask-2)" points="87.3652 31.836 87.3652 52.216 90.9102 52.216 90.9102 32.345"></polygon>
            </g>
        </g>
    </g>
</svg>
